# xmcd
#
# Track frame offsets:
#	150
#	16160
#	34682
#	55207
#	72235
#	92285
#	107237
#	122127
#	139397
#	143280
#	158752
#
# Disc length: 2579 seconds
#
# Revision: 0
# Processed by: cddbd v1.5.2PL0 Copyright (c) Steve Scherf et al.
# Submitted via: dBpowerAMP V4.0
#
DISCID=8a0a110b
DTITLE=The Garden Orchestra - Flowers For The Dead
DYEAR=2009
DGENRE=Country
TTITLE0=Western Time
TTITLE1=And A Time To Dance
TTITLE2=Flowers For The Dead
TTITLE3=Carolina
TTITLE4=Nöd Schlafe
TTITLE5=Victoria Station 1959
TTITLE6=Alison Is Back In Town
TTITLE7=Last Train To Effretikon
TTITLE8=Moratorium In A-moll (Die Jahre ohne dich)
TTITLE9=My Mother Was A Gambling Man
TTITLE10=Sinnloser Sonnabend
EXTD=
EXTT0=
EXTT1=
EXTT2=
EXTT3=
EXTT4=
EXTT5=
EXTT6=
EXTT7=
EXTT8=
EXTT9=
EXTT10=
PLAYORDER=
